<svg width="95" height="41" viewBox="0 0 95 41" fill="none" xmlns="http://www.w3.org/2000/svg">
<g clip-path="url(#clip0_632_7553)">
<mask id="mask0_632_7553" style="mask-type:luminance" maskUnits="userSpaceOnUse" x="-11" y="-12" width="117" height="65">
<path d="M-10.4238 -11.124H105.365V52.876H-10.4238V-11.124Z" fill="white"/>
</mask>
<g mask="url(#mask0_632_7553)">
<path d="M11.0395 38.6433H7.84618V35.6954C7.85168 35.1813 7.91928 34.7823 8.04928 34.4985C8.28228 33.9899 8.71028 33.7354 9.33308 33.7354C10.0699 33.7354 10.5683 33.9978 10.8283 34.5226C10.9692 34.8118 11.0395 35.2162 11.0395 35.7355V38.6433ZM5.86358 38.6433H3.22268V36.0379C3.22268 35.4642 3.28498 34.9924 3.40958 34.6225C3.58838 34.1937 3.95678 33.9792 4.51468 33.9792C5.01848 33.9792 5.36928 34.1414 5.56698 34.4657C5.76468 34.7901 5.86358 35.2122 5.86358 35.7323V38.6433ZM12.3559 32.5898C12.1013 32.2506 11.7871 31.9679 11.4133 31.7416C10.85 31.3861 10.2135 31.2084 9.50378 31.2084C8.81588 31.2084 8.23088 31.3639 7.74868 31.675C7.26658 31.986 6.91448 32.4473 6.69228 33.0585C6.48648 32.6561 6.25898 32.3516 6.00978 32.1449C5.56568 31.7753 4.97778 31.5903 4.24658 31.5903C3.53698 31.5903 2.92758 31.7736 2.41828 32.14C1.58948 32.749 1.16428 33.7837 1.14258 35.2441V41.0322H13.1197V35.6355C13.1197 35.027 13.0656 34.4629 12.9572 33.9432C12.8489 33.4233 12.6484 32.9723 12.3559 32.5898Z" fill="#141011"/>
</g>
<mask id="mask1_632_7553" style="mask-type:luminance" maskUnits="userSpaceOnUse" x="-11" y="-12" width="117" height="65">
<path d="M-10.4238 -11.124H105.365V52.876H-10.4238V-11.124Z" fill="white"/>
</mask>
<g mask="url(#mask1_632_7553)">
<path d="M1.14258 19.5525V22.7864L6.07748 27.4139H1.14258V29.876H13.1197V27.4139H9.11378L7.89148 26.2085L13.1197 22.5184V19.3005L6.06848 24.4675L1.14258 19.5525Z" fill="#141011"/>
</g>
<mask id="mask2_632_7553" style="mask-type:luminance" maskUnits="userSpaceOnUse" x="-11" y="-12" width="117" height="65">
<path d="M-10.4238 -11.124H105.365V52.876H-10.4238V-11.124Z" fill="white"/>
</mask>
<g mask="url(#mask2_632_7553)">
<path d="M10.7017 0.71936V2.74936V3.13906H13.1222H15.6392V41.0322H18.0596V3.13906H22.9976V0.71936H10.7017Z" fill="#141011"/>
</g>
<mask id="mask3_632_7553" style="mask-type:luminance" maskUnits="userSpaceOnUse" x="-11" y="-12" width="117" height="65">
<path d="M-10.4238 -11.124H105.365V52.876H-10.4238V-11.124Z" fill="white"/>
</mask>
<g mask="url(#mask3_632_7553)">
<path d="M20.5776 41.0322H22.998V5.55994H20.5776V41.0322Z" fill="#0064CC"/>
</g>
<mask id="mask4_632_7553" style="mask-type:luminance" maskUnits="userSpaceOnUse" x="-11" y="-12" width="117" height="65">
<path d="M-10.4238 -11.124H105.365V52.876H-10.4238V-11.124Z" fill="white"/>
</mask>
<g mask="url(#mask4_632_7553)">
<path d="M10.7017 18.2422L13.1222 16.47V5.56079H10.7017V18.2422Z" fill="#141011"/>
</g>
<mask id="mask5_632_7553" style="mask-type:luminance" maskUnits="userSpaceOnUse" x="-11" y="-12" width="117" height="65">
<path d="M-10.4238 -11.124H105.365V52.876H-10.4238V-11.124Z" fill="white"/>
</mask>
<g mask="url(#mask5_632_7553)">
<path d="M35.1856 41.0322H34.7637V0.71936H35.1856V41.0322Z" fill="#0064CC"/>
</g>
<mask id="mask6_632_7553" style="mask-type:luminance" maskUnits="userSpaceOnUse" x="-11" y="-12" width="117" height="65">
<path d="M-10.4238 -11.124H105.365V52.876H-10.4238V-11.124Z" fill="white"/>
</mask>
<g mask="url(#mask6_632_7553)">
<path d="M49.5373 14.2578C49.0338 14.2578 48.6193 14.1878 48.2946 14.0485C47.9699 13.9092 47.7144 13.6859 47.5274 13.3785C47.3403 13.0711 47.2101 12.6731 47.1376 12.1844C47.0651 11.6957 47.0288 11.0999 47.0288 10.397C47.0288 9.66437 47.0791 9.05047 47.1804 8.55597C47.2818 8.06147 47.4408 7.66507 47.6592 7.36757C47.8768 7.07007 48.157 6.85667 48.5007 6.72897C48.8443 6.60127 49.2588 6.53687 49.7433 6.53687C49.8809 6.53687 50.0186 6.54597 50.1562 6.56247C50.2939 6.57977 50.424 6.60287 50.5485 6.63167C50.6721 6.66057 50.7842 6.69187 50.8831 6.72647C50.9828 6.76027 51.0644 6.79657 51.1295 6.83517V7.80847C51.0611 7.77057 50.9778 7.73107 50.8806 7.69147C50.7834 7.65107 50.677 7.61487 50.5625 7.58267C50.448 7.54967 50.3276 7.52417 50.2015 7.50527C50.0755 7.48627 49.9502 7.47637 49.8241 7.47637C49.6173 7.47637 49.4327 7.49207 49.2679 7.52257C49.1039 7.55297 48.9588 7.60827 48.8327 7.68817C48.7067 7.76807 48.5979 7.87687 48.5064 8.01447C48.4149 8.15217 48.3408 8.32846 48.283 8.54436C48.2262 8.76036 48.1842 9.02067 48.157 9.32647C48.1306 9.63217 48.1174 9.98907 48.1174 10.397C48.1174 11.0085 48.1397 11.5045 48.1858 11.887C48.232 12.2685 48.3086 12.5668 48.4174 12.7827C48.5262 12.9986 48.6704 13.1453 48.8501 13.2236C49.0297 13.3019 49.2547 13.3414 49.5258 13.3414C49.6939 13.3414 49.8455 13.3316 49.9815 13.3126C50.1167 13.2936 50.2362 13.2689 50.3392 13.2384V10.7522H49.2398V9.85887H51.3932V13.8796C51.3396 13.9142 51.249 13.9529 51.1212 13.9974C50.9935 14.0411 50.8435 14.0823 50.6712 14.1202C50.4999 14.1581 50.3152 14.1911 50.1191 14.2174C49.9222 14.2447 49.7285 14.2578 49.5373 14.2578Z" fill="#0064CC"/>
</g>
<mask id="mask7_632_7553" style="mask-type:luminance" maskUnits="userSpaceOnUse" x="-11" y="-12" width="117" height="65">
<path d="M-10.4238 -11.124H105.365V52.876H-10.4238V-11.124Z" fill="white"/>
</mask>
<g mask="url(#mask7_632_7553)">
<path d="M56.3761 10.7404H54.1074V14.1191H53.0542V6.67346H54.1074V9.84616H56.3761V6.67346H57.4293V14.1191H56.3761V10.7404Z" fill="#0064CC"/>
</g>
<mask id="mask8_632_7553" style="mask-type:luminance" maskUnits="userSpaceOnUse" x="-11" y="-12" width="117" height="65">
<path d="M-10.4238 -11.124H105.365V52.876H-10.4238V-11.124Z" fill="white"/>
</mask>
<g mask="url(#mask8_632_7553)">
<path d="M59.1934 6.67346H62.676V7.56676H60.2473V9.84616H62.2062V10.7288H60.2473V13.2259H62.676V14.1191H59.1934V6.67346Z" fill="#0064CC"/>
</g>
<mask id="mask9_632_7553" style="mask-type:luminance" maskUnits="userSpaceOnUse" x="-11" y="-12" width="117" height="65">
<path d="M-10.4238 -11.124H105.365V52.876H-10.4238V-11.124Z" fill="white"/>
</mask>
<g mask="url(#mask9_632_7553)">
<path d="M64.1655 6.67346H65.3794L67.7272 12.607C67.6852 12.302 67.6506 11.979 67.6217 11.6395C67.5929 11.2991 67.5789 10.9612 67.5789 10.625V6.67346H68.5868V14.1191H67.3729L65.0012 8.16266C65.0473 8.46836 65.0868 8.79386 65.1215 9.13916C65.1561 9.48446 65.1734 9.82726 65.1734 10.1668V14.1191H64.1655V6.67346Z" fill="#0064CC"/>
</g>
<mask id="mask10_632_7553" style="mask-type:luminance" maskUnits="userSpaceOnUse" x="-11" y="-12" width="117" height="65">
<path d="M-10.4238 -11.124H105.365V52.876H-10.4238V-11.124Z" fill="white"/>
</mask>
<g mask="url(#mask10_632_7553)">
<path d="M69.5718 6.67346H73.8447V7.56676H72.2294V14.1191H71.1755V7.56676H69.5718V6.67346Z" fill="#0064CC"/>
</g>
<mask id="mask11_632_7553" style="mask-type:luminance" maskUnits="userSpaceOnUse" x="-11" y="-12" width="117" height="65">
<path d="M-10.4238 -11.124H105.365V52.876H-10.4238V-11.124Z" fill="white"/>
</mask>
<g mask="url(#mask11_632_7553)">
<path d="M49.4568 24.8057C49.0786 24.8057 48.7514 24.7611 48.4745 24.6738C48.1976 24.5856 47.9693 24.4472 47.7897 24.2585C47.6108 24.0698 47.4765 23.8242 47.3892 23.5225C47.301 23.221 47.2573 22.8542 47.2573 22.4232V17.2225H48.3114V22.4686C48.3114 22.7438 48.3352 22.9729 48.3831 23.1558C48.4308 23.3396 48.5017 23.4855 48.5973 23.5943C48.6929 23.7031 48.8124 23.7797 48.9558 23.8233C49.0984 23.8671 49.2656 23.8892 49.4568 23.8892C49.6472 23.8892 49.8145 23.8671 49.9579 23.8233C50.1013 23.7797 50.2199 23.7031 50.3155 23.5943C50.4111 23.4855 50.4828 23.3396 50.5306 23.1558C50.5784 22.9729 50.6023 22.7438 50.6023 22.4686V17.2225H51.6563V22.4232C51.6563 22.8468 51.611 23.2094 51.5212 23.511C51.4314 23.8127 51.2962 24.059 51.1149 24.2502C50.9336 24.4406 50.7045 24.5815 50.4276 24.6705C50.1507 24.7603 49.8269 24.8057 49.4568 24.8057Z" fill="#0064CC"/>
</g>
<mask id="mask12_632_7553" style="mask-type:luminance" maskUnits="userSpaceOnUse" x="-11" y="-12" width="117" height="65">
<path d="M-10.4238 -11.124H105.365V52.876H-10.4238V-11.124Z" fill="white"/>
</mask>
<g mask="url(#mask12_632_7553)">
<path d="M53.3633 17.2224H54.5771L56.925 23.1558C56.883 22.8508 56.8484 22.5278 56.8196 22.1883C56.7907 21.848 56.7767 21.51 56.7767 21.1738V17.2224H57.7845V24.668H56.5706L54.1989 18.7115C54.2451 19.0172 54.2846 19.3427 54.3192 19.688C54.3539 20.0333 54.3711 20.3761 54.3711 20.7156V24.668H53.3633V17.2224Z" fill="#0064CC"/>
</g>
<mask id="mask13_632_7553" style="mask-type:luminance" maskUnits="userSpaceOnUse" x="-11" y="-12" width="117" height="65">
<path d="M-10.4238 -11.124H105.365V52.876H-10.4238V-11.124Z" fill="white"/>
</mask>
<g mask="url(#mask13_632_7553)">
<path d="M59.5488 17.2224H60.602V24.668H59.5488V17.2224Z" fill="#0064CC"/>
</g>
<mask id="mask14_632_7553" style="mask-type:luminance" maskUnits="userSpaceOnUse" x="-11" y="-12" width="117" height="65">
<path d="M-10.4238 -11.124H105.365V52.876H-10.4238V-11.124Z" fill="white"/>
</mask>
<g mask="url(#mask14_632_7553)">
<path d="M61.5298 17.2224H62.63L63.5694 21.0939C63.6032 21.2389 63.6395 21.4071 63.6782 21.5983C63.7161 21.7894 63.7532 21.9889 63.7894 22.1966C63.8257 22.405 63.8603 22.616 63.8925 22.8294C63.9254 23.0437 63.9543 23.2473 63.9814 23.4425C64.0078 23.2473 64.0375 23.0437 64.0705 22.8294C64.1026 22.616 64.138 22.405 64.176 22.1966C64.2147 21.9889 64.2534 21.7894 64.2938 21.5983C64.3334 21.4071 64.3745 21.2389 64.4165 21.0939L65.3445 17.2224H66.41L64.5196 24.668H63.4203L61.5298 17.2224Z" fill="#0064CC"/>
</g>
<mask id="mask15_632_7553" style="mask-type:luminance" maskUnits="userSpaceOnUse" x="-11" y="-12" width="117" height="65">
<path d="M-10.4238 -11.124H105.365V52.876H-10.4238V-11.124Z" fill="white"/>
</mask>
<g mask="url(#mask15_632_7553)">
<path d="M67.3496 17.2224H70.8314V18.1156H68.4028V20.3951H70.3616V21.2777H68.4028V23.7747H70.8314V24.668H67.3496V17.2224Z" fill="#0064CC"/>
</g>
<mask id="mask16_632_7553" style="mask-type:luminance" maskUnits="userSpaceOnUse" x="-11" y="-12" width="117" height="65">
<path d="M-10.4238 -11.124H105.365V52.876H-10.4238V-11.124Z" fill="white"/>
</mask>
<g mask="url(#mask16_632_7553)">
<path d="M73.3743 18.1156V20.7386H73.9356C74.1416 20.7386 74.3286 20.7238 74.4968 20.6934C74.6649 20.6629 74.8091 20.6019 74.9294 20.5096C75.0497 20.4181 75.1428 20.2854 75.2096 20.1115C75.2763 19.9377 75.3102 19.7077 75.3102 19.4218C75.3102 19.1391 75.2763 18.9117 75.2096 18.7403C75.1428 18.568 75.0497 18.4362 74.9294 18.3447C74.8091 18.2532 74.6649 18.1922 74.4968 18.1618C74.3286 18.1313 74.1416 18.1156 73.9356 18.1156H73.3743ZM72.3203 17.2223H74.0385C74.3822 17.2223 74.6978 17.2577 74.9863 17.3286C75.2747 17.3986 75.5236 17.519 75.7337 17.6887C75.9439 17.8593 76.107 18.0851 76.2232 18.3678C76.3402 18.6505 76.3979 19.0015 76.3979 19.4218C76.3979 19.716 76.365 19.974 76.2982 20.1981C76.2315 20.4214 76.14 20.6126 76.023 20.7733C75.9067 20.9339 75.7691 21.0683 75.6109 21.1771C75.4527 21.2859 75.2829 21.3724 75.1041 21.4375L76.6847 24.668H75.4815L74.0847 21.632H73.3743V24.668H72.3203V17.2223Z" fill="#0064CC"/>
</g>
<mask id="mask17_632_7553" style="mask-type:luminance" maskUnits="userSpaceOnUse" x="-11" y="-12" width="117" height="65">
<path d="M-10.4238 -11.124H105.365V52.876H-10.4238V-11.124Z" fill="white"/>
</mask>
<g mask="url(#mask17_632_7553)">
<path d="M78.816 24.8057C78.4872 24.8057 78.2062 24.7768 77.9738 24.72C77.7406 24.6623 77.5667 24.5997 77.4522 24.5304V23.5572C77.5972 23.6371 77.7777 23.7088 77.9936 23.7715C78.2095 23.8349 78.4526 23.8662 78.7237 23.8662C78.8993 23.8662 79.0599 23.8481 79.2049 23.8118C79.35 23.7756 79.4736 23.7179 79.5741 23.6396C79.6755 23.5621 79.7538 23.4607 79.809 23.3363C79.8642 23.2127 79.8923 23.0603 79.8923 22.8814C79.8923 22.7281 79.8741 22.593 79.8379 22.4743C79.8016 22.3565 79.7489 22.2452 79.6805 22.1423C79.6121 22.0392 79.5288 21.9411 79.4316 21.8472C79.3344 21.7541 79.2239 21.6552 79.102 21.5522L78.5061 21.0371C78.3421 20.8954 78.1938 20.7586 78.0628 20.6243C77.9309 20.4907 77.8189 20.3465 77.7274 20.1925C77.6359 20.0375 77.565 19.8677 77.5156 19.6824C77.4661 19.4969 77.4414 19.2843 77.4414 19.0436C77.4414 18.7536 77.4884 18.4882 77.584 18.2476C77.6796 18.007 77.8197 17.801 78.0051 17.6287C78.1905 17.4573 78.418 17.3238 78.6866 17.2282C78.9561 17.1326 79.266 17.0848 79.6179 17.0848C79.7431 17.0848 79.8675 17.093 79.9895 17.1078C80.1123 17.1235 80.2252 17.1433 80.3307 17.168C80.4353 17.1927 80.5301 17.2216 80.6142 17.2537C80.6982 17.2867 80.7666 17.318 80.8202 17.3485V18.311C80.7057 18.2418 80.5491 18.1767 80.3505 18.1157C80.1518 18.0547 79.9384 18.0242 79.7093 18.0242C79.5297 18.0242 79.3681 18.0424 79.2248 18.0786C79.0822 18.1149 78.9594 18.1726 78.8589 18.2509C78.7575 18.3291 78.6792 18.4306 78.624 18.5566C78.5688 18.6827 78.5408 18.8335 78.5408 19.009C78.5408 19.1623 78.5589 19.2967 78.5952 19.4128C78.6314 19.5299 78.6842 19.6395 78.7526 19.7425C78.8218 19.8455 78.9042 19.9436 79.0014 20.0375C79.0995 20.1314 79.2091 20.2312 79.3311 20.3383L79.9269 20.8533C80.0909 20.995 80.2392 21.1327 80.3702 21.2662C80.5021 21.3997 80.6142 21.544 80.7057 21.698C80.7972 21.853 80.868 22.0227 80.9174 22.2082C80.9669 22.3935 80.9924 22.6061 80.9924 22.8468C80.9924 23.1369 80.9446 23.4022 80.8491 23.6429C80.7534 23.8835 80.6134 24.0895 80.428 24.2617C80.2425 24.4332 80.0142 24.5667 79.7431 24.6623C79.472 24.7579 79.1629 24.8057 78.816 24.8057Z" fill="#0064CC"/>
</g>
<mask id="mask18_632_7553" style="mask-type:luminance" maskUnits="userSpaceOnUse" x="-11" y="-12" width="117" height="65">
<path d="M-10.4238 -11.124H105.365V52.876H-10.4238V-11.124Z" fill="white"/>
</mask>
<g mask="url(#mask18_632_7553)">
<path d="M82.332 17.2224H83.3852V24.668H82.332V17.2224Z" fill="#0064CC"/>
</g>
<mask id="mask19_632_7553" style="mask-type:luminance" maskUnits="userSpaceOnUse" x="-11" y="-12" width="117" height="65">
<path d="M-10.4238 -11.124H105.365V52.876H-10.4238V-11.124Z" fill="white"/>
</mask>
<g mask="url(#mask19_632_7553)">
<path d="M84.3711 17.2224H88.644V18.1156H87.0288V24.668H85.9747V18.1156H84.3711V17.2224Z" fill="#0064CC"/>
</g>
<mask id="mask20_632_7553" style="mask-type:luminance" maskUnits="userSpaceOnUse" x="-11" y="-12" width="117" height="65">
<path d="M-10.4238 -11.124H105.365V52.876H-10.4238V-11.124Z" fill="white"/>
</mask>
<g mask="url(#mask20_632_7553)">
<path d="M90.717 21.5752L88.6777 17.2224H89.835L90.717 19.2273C90.82 19.4672 90.918 19.7127 91.009 19.9632C91.101 20.213 91.179 20.4527 91.244 20.6819C91.312 20.4527 91.396 20.213 91.493 19.9632C91.59 19.7127 91.691 19.4672 91.794 19.2273L92.675 17.2224H93.799L91.771 21.5752V24.668H90.717V21.5752Z" fill="#0064CC"/>
</g>
<mask id="mask21_632_7553" style="mask-type:luminance" maskUnits="userSpaceOnUse" x="-11" y="-12" width="117" height="65">
<path d="M-10.4238 -11.124H105.365V52.876H-10.4238V-11.124Z" fill="white"/>
</mask>
<g mask="url(#mask21_632_7553)">
<path d="M47.3149 27.7712H48.3681V34.3236H50.6822V35.2168H47.3149V27.7712Z" fill="#0064CC"/>
</g>
<mask id="mask22_632_7553" style="mask-type:luminance" maskUnits="userSpaceOnUse" x="-11" y="-12" width="117" height="65">
<path d="M-10.4238 -11.124H105.365V52.876H-10.4238V-11.124Z" fill="white"/>
</mask>
<g mask="url(#mask22_632_7553)">
<path d="M51.7944 27.7712H52.8476V35.2168H51.7944V27.7712Z" fill="#0064CC"/>
</g>
<mask id="mask23_632_7553" style="mask-type:luminance" maskUnits="userSpaceOnUse" x="-11" y="-12" width="117" height="65">
<path d="M-10.4238 -11.124H105.365V52.876H-10.4238V-11.124Z" fill="white"/>
</mask>
<g mask="url(#mask23_632_7553)">
<path d="M55.6658 31.918V34.3465H56.2732C56.4825 34.3465 56.6745 34.3367 56.8484 34.3177C57.0223 34.2988 57.1723 34.2485 57.2984 34.1686C57.4244 34.0886 57.5217 33.9683 57.5901 33.8076C57.6585 33.6478 57.6931 33.4261 57.6931 33.1434C57.6931 32.8574 57.6577 32.6316 57.5876 32.4676C57.5167 32.3037 57.4187 32.1808 57.2926 32.1009C57.1665 32.021 57.0165 31.9707 56.8426 31.9493C56.6688 31.9287 56.4792 31.918 56.2732 31.918H55.6658ZM55.6658 28.6414V31.07H56.0325C56.2419 31.07 56.4347 31.0593 56.6111 31.0387C56.7866 31.018 56.9374 30.967 57.0635 30.887C57.1895 30.8063 57.2876 30.6843 57.3585 30.5203C57.4286 30.3564 57.464 30.1306 57.464 29.8446C57.464 29.5619 57.4286 29.3402 57.3585 29.1803C57.2876 29.0197 57.1895 28.8993 57.0635 28.8194C56.9374 28.7395 56.7866 28.6892 56.6111 28.6702C56.4347 28.6513 56.2419 28.6414 56.0325 28.6414H55.6658ZM54.6118 27.7711H56.0663C56.4331 27.7711 56.7693 27.8 57.075 27.8568C57.38 27.9145 57.642 28.0184 57.8596 28.1692C58.0771 28.32 58.2469 28.5269 58.3688 28.7905C58.4908 29.0543 58.5526 29.3938 58.5526 29.8099C58.5526 30.0242 58.532 30.217 58.4924 30.3885C58.4521 30.5607 58.3952 30.7123 58.3202 30.8442C58.2461 30.976 58.157 31.0905 58.054 31.1878C57.951 31.2851 57.8381 31.3683 57.7162 31.4367C57.8686 31.4977 58.0112 31.576 58.143 31.6715C58.2749 31.7672 58.387 31.885 58.4809 32.0267C58.574 32.1677 58.6474 32.3341 58.701 32.5253C58.7545 32.7157 58.7817 32.9333 58.7817 33.178C58.7817 33.5868 58.7215 33.9222 58.6013 34.1859C58.4809 34.4496 58.312 34.6572 58.0944 34.8105C57.8769 34.963 57.6157 35.0684 57.3124 35.1278C57.0091 35.1871 56.6737 35.2168 56.307 35.2168H54.6118V27.7711Z" fill="#0064CC"/>
</g>
<mask id="mask24_632_7553" style="mask-type:luminance" maskUnits="userSpaceOnUse" x="-11" y="-12" width="117" height="65">
<path d="M-10.4238 -11.124H105.365V52.876H-10.4238V-11.124Z" fill="white"/>
</mask>
<g mask="url(#mask24_632_7553)">
<path d="M61.186 28.6645V31.2875H61.7472C61.954 31.2875 62.1411 31.2727 62.3092 31.2422C62.4765 31.2118 62.6208 31.1508 62.741 31.0585C62.8614 30.967 62.9553 30.8343 63.0221 30.6604C63.0888 30.4865 63.1218 30.2566 63.1218 29.9707C63.1218 29.688 63.0888 29.4606 63.0221 29.2891C62.9553 29.1169 62.8614 28.985 62.741 28.8936C62.6208 28.8021 62.4765 28.7411 62.3092 28.7106C62.1411 28.6801 61.954 28.6645 61.7472 28.6645H61.186ZM60.1328 27.7711H61.851C62.1946 27.7711 62.5103 27.8066 62.7987 27.8775C63.0872 27.9475 63.336 28.0678 63.5462 28.2376C63.7563 28.4082 63.9195 28.634 64.0357 28.9166C64.1519 29.1993 64.2104 29.5504 64.2104 29.9707C64.2104 30.2649 64.1766 30.5228 64.1099 30.7469C64.0431 30.9703 63.9516 31.1614 63.8355 31.3222C63.7184 31.4828 63.5816 31.6172 63.4225 31.726C63.2644 31.8348 63.0954 31.9213 62.9157 31.9864L64.4964 35.2168H63.294L61.8964 32.1808H61.186V35.2168H60.1328V27.7711Z" fill="#0064CC"/>
</g>
<mask id="mask25_632_7553" style="mask-type:luminance" maskUnits="userSpaceOnUse" x="-11" y="-12" width="117" height="65">
<path d="M-10.4238 -11.124H105.365V52.876H-10.4238V-11.124Z" fill="white"/>
</mask>
<g mask="url(#mask25_632_7553)">
<path d="M66.4901 32.6391H68.1284L67.8185 31.4021C67.7765 31.2496 67.7337 31.0766 67.69 30.8837C67.6463 30.6909 67.6018 30.4907 67.5581 30.283C67.5145 30.0745 67.4724 29.8619 67.432 29.6443C67.3925 29.4267 67.3571 29.2141 67.3266 29.0081C67.292 29.2141 67.2524 29.4267 67.2087 29.6443C67.165 29.8619 67.1205 30.0745 67.0744 30.283C67.0282 30.4907 66.9829 30.6909 66.9368 30.8837C66.8914 31.0766 66.8494 31.2496 66.8107 31.4021L66.4901 32.6391ZM66.7769 27.7711H67.8647L69.8466 35.2168H68.7465L68.3114 33.5332H66.2841L65.8605 35.2168H64.7949L66.7769 27.7711Z" fill="#0064CC"/>
</g>
<path d="M71.8281 28.6645V31.2875H72.3893C72.5961 31.2875 72.7832 31.2727 72.9513 31.2422C73.1186 31.2118 73.2628 31.1508 73.3831 31.0585C73.5035 30.967 73.5974 30.8343 73.6642 30.6604C73.7309 30.4865 73.7638 30.2566 73.7638 29.9707C73.7638 29.688 73.7309 29.4606 73.6642 29.2891C73.5974 29.1169 73.5035 28.985 73.3831 28.8936C73.2628 28.8021 73.1186 28.7411 72.9513 28.7106C72.7832 28.6801 72.5961 28.6645 72.3893 28.6645H71.8281ZM70.7749 27.7711H72.4931C72.8367 27.7711 73.1524 27.8066 73.4408 27.8775C73.7293 27.9475 73.9781 28.0678 74.1883 28.2376C74.3984 28.4082 74.5616 28.634 74.6778 28.9166C74.794 29.1993 74.8525 29.5504 74.8525 29.9707C74.8525 30.2649 74.8187 30.5228 74.752 30.7469C74.6852 30.9703 74.5937 31.1614 74.4776 31.3222C74.3605 31.4828 74.2237 31.6172 74.0646 31.726C73.9064 31.8348 73.7375 31.9213 73.5578 31.9864L75.1384 35.2168H73.9361L72.5384 32.1808H71.8281V35.2168H70.7749V27.7711Z" fill="#0064CC"/>
<path d="M77.2458 32.124L75.207 27.7711H76.364L77.2458 29.7762C77.3489 30.016 77.4461 30.2615 77.5376 30.512C77.6299 30.7618 77.7082 31.0016 77.7724 31.2307C77.8417 31.0016 77.9249 30.7618 78.0221 30.512C78.1194 30.2615 78.2199 30.016 78.3229 29.7762L79.2047 27.7711H80.3271L78.2999 32.124V35.2168H77.2458V32.124Z" fill="#0064CC"/>
</g>
<defs>
<clipPath id="clip0_632_7553">
<rect width="94" height="41" fill="white" transform="translate(0.072998)"/>
</clipPath>
</defs>
</svg>
